<svg version="1.1" id="Layer_1" xmlns="http://www.w3.org/2000/svg" xmlns:xlink="http://www.w3.org/1999/xlink" x="0px" y="0px"
	 width="100%" viewBox="0 0 450 285" enable-background="new 0 0 450 285" xml:space="preserve">
<path fill="#000000" opacity="1.000000" stroke="none" 
	d="
M344.000000,0.999999 
	C379.655975,1.000000 415.311981,1.000000 450.983978,1.000000 
	C450.983978,95.960884 450.983978,190.921768 450.983978,285.941345 
	C301.084045,285.941345 151.168030,285.941345 1.126020,285.941345 
	C1.126020,191.112595 1.126020,96.224976 1.126020,1.000000 
	C112.354004,1.000000 223.708344,1.000000 335.535461,1.376533 
	C337.928864,2.823409 339.851440,3.890138 341.769653,4.964755 
	C347.691650,8.282408 351.346161,15.523755 349.855927,21.947617 
	C348.460907,27.960999 347.114258,34.084759 344.780609,39.763062 
	C337.087677,58.481785 325.085236,73.467674 306.315826,82.313324 
	C294.142914,88.050179 282.075470,94.010872 269.655792,99.929993 
	C268.865875,100.309883 268.380951,100.631065 267.927002,100.955887 
	C267.957977,100.959518 267.945435,100.898438 267.579559,100.956528 
	C251.456848,108.097420 236.451202,116.501724 222.533661,127.083687 
	C222.991013,120.017082 223.412125,113.510475 223.897552,106.543335 
	C224.413864,88.983871 221.084320,72.648811 212.799042,57.675545 
	C202.746582,39.508602 186.772095,30.599491 166.150208,30.107992 
	C163.339996,30.041014 160.496948,31.351250 157.669113,32.023823 
	C157.721359,32.498066 157.773605,32.972305 157.825867,33.446548 
	C163.133789,32.083282 167.783646,33.596565 170.316818,38.035492 
	C179.335953,53.839878 179.685120,70.262932 171.727921,86.517319 
	C168.078323,93.972481 163.205063,100.828590 158.584412,108.109764 
	C147.737900,123.410492 137.153442,138.537262 133.338440,157.625381 
	C132.738632,156.818130 132.314987,156.372604 132.033157,155.850555 
	C123.657166,140.335281 112.489204,127.395042 97.453316,117.929047 
	C84.456017,109.746460 70.588654,108.615486 56.243397,113.076515 
	C50.265411,114.935532 45.088791,118.423035 42.672745,124.915375 
	C48.880005,119.317268 54.696049,122.148544 60.043476,125.693878 
	C72.286133,133.810730 78.954971,145.376938 80.030289,160.379745 
	C80.016022,161.103149 80.061356,161.517838 80.067841,162.325470 
	C80.396904,164.489258 80.764809,166.260101 81.059158,168.390350 
	C81.023651,169.477005 81.061707,170.204239 81.063576,171.348923 
	C81.731995,175.510284 82.436600,179.254211 83.075806,183.411530 
	C83.649452,187.769455 84.288498,191.713989 85.093681,196.684052 
	C82.048912,195.316071 79.958572,194.472427 77.953072,193.460602 
	C63.154728,185.994568 47.622803,183.277573 31.179317,185.930359 
	C20.562078,187.643219 7.866787,198.964920 5.332608,209.353302 
	C5.083432,210.374756 5.568410,211.575287 5.605099,211.859558 
	C8.836817,210.124725 11.636351,207.481461 14.652970,207.204742 
	C26.215473,206.144104 36.592251,209.369553 44.628368,218.193604 
	C49.290710,223.313110 53.638126,228.719406 58.178276,234.327042 
	C63.484573,239.772308 68.155762,245.735580 74.110168,249.834930 
	C88.971008,260.065948 105.815239,260.943146 122.930717,257.417297 
	C129.344040,256.096100 135.457245,253.318100 141.707275,251.204285 
	C141.551743,250.719238 141.396210,250.234207 141.240692,249.749161 
	C133.584930,250.460022 125.929871,251.753693 118.273254,251.763046 
	C101.207077,251.783875 86.274200,246.660812 75.900421,231.563187 
	C74.668427,229.836777 73.757217,228.232712 72.475044,227.021271 
	C63.308552,218.360565 54.066486,209.779846 45.033764,201.346710 
	C45.305370,201.385956 46.333157,201.379028 47.253052,201.690628 
	C60.780704,206.273117 70.672104,215.602768 78.821121,226.809250 
	C86.341446,237.151123 95.683334,244.744232 108.211639,247.490295 
	C113.986954,248.756210 120.131203,248.691040 125.955772,246.890076 
	C114.974121,244.216980 108.155312,236.475922 108.405045,227.165619 
	C115.773232,230.538544 123.177711,234.413971 130.935669,237.357849 
	C140.894821,241.137054 151.495346,242.327927 155.197937,240.740570 
	C152.717911,239.735794 150.532944,238.774353 148.295380,237.956848 
	C137.130386,233.877563 126.938507,228.057251 117.921173,220.353638 
	C106.194031,210.335037 101.563873,197.002228 100.882263,181.749786 
	C100.904045,181.322266 100.876213,181.150696 100.908798,180.657867 
	C100.929092,179.904480 100.888977,179.472382 100.893074,178.664383 
	C100.586723,176.845642 100.236168,175.402771 99.951378,173.644974 
	C99.973686,172.905716 99.930222,172.481415 99.802551,171.677444 
	C96.026016,159.078598 92.333679,146.859406 88.390953,133.811584 
	C94.365219,140.112259 98.456245,146.640518 100.960426,154.428711 
	C101.168640,155.179642 101.439957,155.642059 101.815292,156.477631 
	C102.907646,159.914124 103.895981,162.977478 104.927048,166.472641 
	C105.639816,171.439987 106.661446,175.956131 106.912712,180.514740 
	C107.613945,193.236679 110.854248,204.987625 118.974686,215.074997 
	C124.825806,222.343338 132.494064,226.611969 142.341019,229.465988 
	C132.032608,219.352325 130.188950,206.132996 136.713013,192.881882 
	C142.265533,213.453461 153.712814,229.954391 169.787918,243.477356 
	C169.115341,241.357986 167.964172,239.480865 167.058792,237.491837 
	C163.003525,228.583069 158.566498,219.813171 155.112473,210.673706 
	C149.783081,196.571930 148.748444,181.893021 151.433624,166.795898 
	C151.506989,166.276428 151.318741,165.956696 151.445084,165.505554 
	C151.794098,164.929230 151.828522,164.484329 151.976074,163.759918 
	C152.358902,162.966003 152.628601,162.451569 152.951248,161.722565 
	C153.004181,161.507980 152.900070,161.078384 152.947113,160.839355 
	C152.994156,160.600311 153.041122,160.115341 153.312592,159.965256 
	C153.766953,159.236160 153.949829,158.657150 154.421143,157.864182 
	C157.049026,153.355377 159.289978,149.003265 161.746857,144.776642 
	C168.493607,133.170105 175.331009,121.616249 182.422607,109.849960 
	C186.805618,99.401993 190.898575,89.145599 194.991531,78.889206 
	C195.650009,81.546013 195.982986,84.166466 195.585861,86.671150 
	C194.512405,93.441299 193.128433,100.162216 191.556030,107.105865 
	C185.565445,118.295387 180.032806,129.360901 174.147766,140.235703 
	C171.059052,145.943253 167.353043,151.316742 163.610687,157.019257 
	C162.945923,157.940598 162.597229,158.684219 162.246445,159.426849 
	C154.980652,174.809021 153.606293,190.656647 159.051575,206.824966 
	C160.459122,211.004364 163.044113,214.787216 165.088242,218.752213 
	C165.690689,218.754745 166.293152,218.757278 166.895599,218.759796 
	C161.455643,198.447144 175.430740,189.655655 189.404068,179.195160 
	C185.063812,195.164505 181.780655,209.932251 181.857803,225.356430 
	C181.934967,240.779922 183.856384,255.753952 188.859039,270.521210 
	C191.783508,229.421600 198.682053,189.979599 229.418228,158.897369 
	C232.178864,156.843750 234.421524,154.523788 237.133972,153.096848 
	C246.772964,148.026077 256.779938,143.629547 266.265991,138.298691 
	C284.356110,128.132599 302.183624,117.499344 320.425262,106.910477 
	C325.493378,102.795547 330.256439,98.830185 335.278259,94.859192 
	C335.740356,94.584023 335.943665,94.314476 336.440460,93.895966 
	C340.293915,90.455887 343.853912,87.164772 347.413879,83.873650 
	C347.772797,84.155327 348.131744,84.437012 348.490662,84.718689 
	C347.323029,86.981125 346.528625,89.560089 344.924164,91.452042 
	C337.365540,100.364677 329.584839,109.088989 321.542419,117.936890 
	C310.818390,124.813957 300.789612,132.273270 289.956818,138.283478 
	C278.095459,144.864365 265.216522,149.598007 253.275085,156.050903 
	C234.915985,165.971710 220.544342,180.188766 210.599060,199.031189 
	C210.263351,199.772003 210.194199,200.360168 210.061127,201.200226 
	C209.959015,201.621155 209.920807,201.790161 209.584930,202.154358 
	C208.193085,205.224396 206.595505,208.015076 206.098251,210.989685 
	C204.546921,220.270035 203.411804,229.619965 202.115265,239.266571 
	C202.578705,240.015656 203.042206,240.441086 203.884933,241.214569 
	C203.884933,240.147842 203.884933,239.544876 204.054428,238.615860 
	C208.559891,226.797913 213.250458,215.566360 226.640106,211.776245 
	C233.370544,209.871109 240.165009,208.192200 246.930527,206.410980 
	C242.822769,212.712585 237.807251,217.343796 233.922241,222.782547 
	C228.165726,230.841278 223.210938,239.472702 217.639404,248.012924 
	C217.286789,248.764709 217.209595,249.363892 217.063599,250.201019 
	C216.994781,250.438950 216.860016,250.915649 216.554153,251.099060 
	C214.534576,255.546219 212.820862,259.809967 211.107147,264.073730 
	C211.698471,264.354889 212.289795,264.636047 212.881134,264.917206 
	C215.968994,260.632141 219.056854,256.347046 222.438934,251.904419 
	C234.105377,239.221802 245.288666,226.648865 260.301544,217.991196 
	C277.563538,208.036499 295.716248,202.405563 315.452087,206.256088 
	C332.000641,209.484756 348.561279,210.178391 365.244873,209.907562 
	C372.628815,209.787674 380.007111,208.802216 387.369110,208.029892 
	C392.311890,207.511353 397.221527,206.677139 402.825409,205.888565 
	C402.061768,206.979538 401.883270,207.525467 401.523041,207.703262 
	C398.576141,209.157913 395.670593,210.738525 392.612946,211.919830 
	C369.262634,220.941208 345.094818,220.417175 321.031555,216.650375 
	C308.924103,214.755112 297.013519,214.156998 285.128571,216.126236 
	C269.241333,218.758652 254.968552,225.233292 244.028381,237.566101 
	C240.577759,241.455963 237.690125,245.845245 234.544830,250.005951 
	C236.753525,249.886353 238.102661,249.210693 239.214676,248.258179 
	C248.122559,240.627945 258.012909,238.658340 269.004028,243.000488 
	C277.533997,246.370331 285.991272,249.929016 294.563965,253.184967 
	C307.776001,258.202942 321.261871,263.380096 335.478516,262.696930 
	C347.307556,262.128418 359.413452,260.124023 370.669769,256.498627 
	C388.160431,250.865265 404.559204,242.502274 418.636536,230.210617 
	C427.854614,222.161758 436.370178,213.623413 441.432251,201.844925 
	C450.756592,181.914169 447.045258,152.698120 435.220306,146.908173 
	C437.218750,156.675079 436.730621,159.087769 431.061279,165.633286 
	C429.578491,167.345276 427.828705,168.836166 426.133392,170.352371 
	C412.354797,182.675339 395.966797,188.819672 377.758575,187.645493 
	C360.537415,186.534973 343.447601,183.387299 325.702698,181.057175 
	C327.001740,179.689560 328.210358,178.441971 329.391815,177.169189 
	C337.338013,168.608856 345.935791,160.549713 353.035645,151.336533 
	C360.110382,142.155930 365.680725,131.815979 372.081512,121.659668 
	C373.106506,119.393898 373.965851,117.455086 374.813995,115.511391 
	C380.757629,101.890320 384.787720,87.686043 385.882172,72.894287 
	C387.140381,55.889107 382.910950,40.188667 372.772552,26.175383 
	C365.313995,15.866148 357.881775,5.707889 344.474731,2.585024 
	C344.207886,2.522874 344.153503,1.548683 344.000000,0.999999 
z"/>
<path fill="#3DB12F" opacity="1.000000" stroke="none" 
	d="
M335.019501,94.864822 
	C330.256439,98.830185 325.493378,102.795547 320.071686,106.742989 
	C316.356018,106.151611 313.306000,105.131119 310.240784,105.083107 
	C297.823303,104.888580 285.401093,105.009171 272.980713,104.974777 
	C270.271210,104.967270 267.315857,105.103577 267.945435,100.898438 
	C267.945435,100.898438 267.957977,100.959518 268.194214,100.837898 
	C268.940552,100.434616 269.450653,100.152946 269.960785,99.871277 
	C282.075470,94.010872 294.142914,88.050179 306.315826,82.313324 
	C325.085236,73.467674 337.087677,58.481785 344.780609,39.763062 
	C347.114258,34.084759 348.460907,27.960999 349.855927,21.947617 
	C351.346161,15.523755 347.691650,8.282408 341.769653,4.964755 
	C339.851440,3.890138 337.928864,2.823409 336.004150,1.376533 
	C338.370575,1.000000 340.741119,1.000000 343.555847,0.999999 
	C344.153503,1.548683 344.207886,2.522874 344.474731,2.585024 
	C357.881775,5.707889 365.313995,15.866148 372.772552,26.175383 
	C382.910950,40.188667 387.140381,55.889107 385.882172,72.894287 
	C384.787720,87.686043 380.757629,101.890320 374.813995,115.511391 
	C373.965851,117.455086 373.106506,119.393898 371.618439,121.661255 
	C356.269501,121.985985 341.554443,122.012238 326.839630,121.957062 
	C324.213470,121.947220 321.105621,122.183434 321.883362,117.880478 
	C329.584839,109.088989 337.365540,100.364677 344.924164,91.452042 
	C346.528625,89.560089 347.323029,86.981125 348.490662,84.718689 
	C348.131744,84.437012 347.772797,84.155327 347.413879,83.873650 
	C343.853912,87.164772 340.293915,90.455887 336.250122,94.028961 
	C335.511963,94.488274 335.263031,94.672913 335.019501,94.864822 
z"/>
<path fill="#40B731" opacity="1.000000" stroke="none" 
	d="
M321.542419,117.936882 
	C321.105621,122.183434 324.213470,121.947220 326.839630,121.957062 
	C341.554443,122.012238 356.269501,121.985985 371.447571,121.985939 
	C365.680725,131.815979 360.110382,142.155930 353.035645,151.336533 
	C345.935791,160.549713 337.338013,168.608856 329.391815,177.169189 
	C328.210358,178.441971 327.001740,179.689560 325.702698,181.057175 
	C343.447601,183.387299 360.537415,186.534973 377.758575,187.645493 
	C395.966797,188.819672 412.354797,182.675339 426.133392,170.352371 
	C427.828705,168.836166 429.578491,167.345276 431.061279,165.633286 
	C436.730621,159.087769 437.218750,156.675079 435.220306,146.908173 
	C447.045258,152.698120 450.756592,181.914169 441.017120,201.747040 
	C437.164124,201.568741 434.023071,201.005295 430.890228,201.047729 
	C413.607880,201.281784 396.328033,201.914825 379.046448,201.948883 
	C322.658722,202.059998 266.270599,201.971115 209.882614,201.959167 
	C209.920807,201.790161 209.959015,201.621155 210.175659,200.949158 
	C210.524612,199.923630 210.695129,199.401077 210.865631,198.878510 
	C220.544342,180.188766 234.915985,165.971710 253.275085,156.050903 
	C265.216522,149.598007 278.095459,144.864365 289.956818,138.283478 
	C300.789612,132.273270 310.818390,124.813957 321.542419,117.936882 
z"/>
<path fill="#42BB33" opacity="1.000000" stroke="none" 
	d="
M209.584930,202.154358 
	C266.270599,201.971115 322.658722,202.059998 379.046448,201.948883 
	C396.328033,201.914825 413.607880,201.281784 430.890228,201.047729 
	C434.023071,201.005295 437.164124,201.568741 440.716492,201.950348 
	C436.370178,213.623413 427.854614,222.161758 418.636536,230.210617 
	C404.559204,242.502274 388.160431,250.865265 370.669769,256.498627 
	C359.413452,260.124023 347.307556,262.128418 335.478516,262.696930 
	C321.261871,263.380096 307.776001,258.202942 294.563965,253.184967 
	C285.991272,249.929016 277.533997,246.370331 269.004028,243.000488 
	C258.012909,238.658340 248.122559,240.627945 239.214676,248.258179 
	C238.102661,249.210693 236.753525,249.886353 234.544830,250.005951 
	C237.690125,245.845245 240.577759,241.455963 244.028381,237.566101 
	C254.968552,225.233292 269.241333,218.758652 285.128571,216.126236 
	C297.013519,214.156998 308.924103,214.755112 321.031555,216.650375 
	C345.094818,220.417175 369.262634,220.941208 392.612946,211.919830 
	C395.670593,210.738525 398.576141,209.157913 401.523041,207.703262 
	C401.883270,207.525467 402.061768,206.979538 402.825409,205.888565 
	C397.221527,206.677139 392.311890,207.511353 387.369110,208.029892 
	C380.007111,208.802216 372.628815,209.787674 365.244873,209.907562 
	C348.561279,210.178391 332.000641,209.484756 315.452087,206.256088 
	C295.716248,202.405563 277.563538,208.036499 260.301544,217.991196 
	C245.288666,226.648865 234.105377,239.221802 222.051666,251.865387 
	C219.866791,251.627792 218.363403,251.271729 216.860016,250.915649 
	C216.860016,250.915649 216.994781,250.438950 217.180878,249.945496 
	C217.549591,248.921463 217.732208,248.390884 217.914841,247.860321 
	C223.210938,239.472702 228.165726,230.841278 233.922241,222.782547 
	C237.807251,217.343796 242.822769,212.712585 246.930527,206.410980 
	C240.165009,208.192200 233.370544,209.871109 226.640106,211.776245 
	C213.250458,215.566360 208.559891,226.797913 203.759552,238.616028 
	C202.901886,238.942459 202.508621,238.942688 202.115341,238.942917 
	C203.411804,229.619965 204.546921,220.270035 206.098251,210.989685 
	C206.595505,208.015076 208.193085,205.224396 209.584930,202.154358 
z"/>
<path fill="#3FB531" opacity="1.000000" stroke="none" 
	d="
M267.579559,100.956528 
	C267.315857,105.103577 270.271210,104.967270 272.980713,104.974777 
	C285.401093,105.009171 297.823303,104.888580 310.240784,105.083107 
	C313.306000,105.131119 316.356018,106.151611 319.766602,106.892548 
	C302.183624,117.499344 284.356110,128.132599 266.265991,138.298691 
	C256.779938,143.629547 246.772964,148.026077 237.133972,153.096848 
	C234.421524,154.523788 232.178864,156.843750 228.942230,158.891663 
	C209.201233,159.018143 190.237976,159.084702 171.277161,158.900757 
	C168.820282,158.876938 166.375946,157.559372 163.925812,156.841095 
	C167.353043,151.316742 171.059052,145.943253 174.147766,140.235703 
	C180.032806,129.360901 185.565445,118.295387 192.030945,107.121910 
	C203.156067,106.957787 213.494659,106.980827 223.833221,107.003860 
	C223.412125,113.510475 222.991013,120.017082 222.533661,127.083687 
	C236.451202,116.501724 251.456848,108.097420 267.579559,100.956528 
z"/>
<path fill="#40B531" opacity="1.000000" stroke="none" 
	d="
M81.132721,168.030930 
	C80.764809,166.260101 80.396904,164.489258 80.124313,162.142426 
	C80.176392,161.067963 80.133141,160.569504 80.089890,160.071030 
	C78.954971,145.376938 72.286133,133.810730 60.043476,125.693878 
	C54.696049,122.148544 48.880005,119.317268 42.672745,124.915375 
	C45.088791,118.423035 50.265411,114.935532 56.243397,113.076515 
	C70.588654,108.615486 84.456017,109.746460 97.453316,117.929047 
	C112.489204,127.395042 123.657166,140.335281 132.033157,155.850555 
	C132.314987,156.372604 132.738632,156.818130 133.338440,157.625381 
	C137.153442,138.537262 147.737900,123.410492 158.952667,108.242256 
	C167.126343,108.828079 174.629440,109.434807 182.132538,110.041534 
	C175.331009,121.616249 168.493607,133.170105 161.746857,144.776642 
	C159.289978,149.003265 157.049026,153.355377 154.269104,158.108276 
	C153.566147,159.082657 153.303635,159.598999 153.041122,160.115341 
	C153.041122,160.115341 152.994156,160.600311 152.927994,160.944885 
	C152.838120,161.507050 152.850281,161.722946 152.898315,161.937149 
	C152.628601,162.451569 152.358902,162.966003 151.848206,164.023224 
	C151.448318,164.923004 151.289413,165.279984 151.130508,165.636963 
	C151.318741,165.956696 151.506989,166.276428 150.998138,166.829742 
	C135.131744,168.072510 119.950470,169.613037 104.884308,166.040817 
	C103.895981,162.977478 102.907646,159.914124 101.778938,156.218658 
	C101.433548,155.104416 101.228539,154.622314 101.023529,154.140198 
	C98.456245,146.640518 94.365219,140.112259 88.390953,133.811584 
	C92.333679,146.859406 96.026016,159.078598 99.746552,171.863953 
	C99.811691,172.940033 99.848648,173.449982 99.885605,173.959915 
	C100.236168,175.402771 100.586723,176.845642 100.845253,178.856140 
	C100.784943,179.942230 100.816666,180.460678 100.848381,180.979126 
	C100.876213,181.150696 100.904045,181.322266 100.426277,181.749023 
	C94.327515,182.335526 88.734360,182.666824 83.141205,182.998138 
	C82.436600,179.254211 81.731995,175.510284 81.158737,171.117828 
	C81.237625,169.656525 81.185173,168.843719 81.132721,168.030930 
z"/>
<path fill="#42BA33" opacity="1.000000" stroke="none" 
	d="
M83.075806,183.411530 
	C88.734360,182.666824 94.327515,182.335526 100.376663,182.004974 
	C101.563873,197.002228 106.194031,210.335037 117.921173,220.353638 
	C126.938507,228.057251 137.130386,233.877563 148.295380,237.956848 
	C150.532944,238.774353 152.717911,239.735794 155.197937,240.740570 
	C151.495346,242.327927 140.894821,241.137054 130.935669,237.357849 
	C123.177711,234.413971 115.773232,230.538544 108.405045,227.165619 
	C108.155312,236.475922 114.974121,244.216980 125.955772,246.890076 
	C120.131203,248.691040 113.986954,248.756210 108.211639,247.490295 
	C95.683334,244.744232 86.341446,237.151123 78.821121,226.809250 
	C70.672104,215.602768 60.780704,206.273117 47.253052,201.690628 
	C46.333157,201.379028 45.305370,201.385956 45.033764,201.346710 
	C54.066486,209.779846 63.308552,218.360565 72.475044,227.021271 
	C73.757217,228.232712 74.668427,229.836777 75.638184,231.841125 
	C69.725761,232.947662 63.926510,233.472153 58.127262,233.996643 
	C53.638126,228.719406 49.290710,223.313110 44.628368,218.193604 
	C36.592251,209.369553 26.215473,206.144104 14.652970,207.204742 
	C11.636351,207.481461 8.836817,210.124725 5.605099,211.859558 
	C5.568410,211.575287 5.083432,210.374756 5.332608,209.353302 
	C7.866787,198.964920 20.562078,187.643219 31.179317,185.930359 
	C47.622803,183.277573 63.154728,185.994568 77.953072,193.460602 
	C79.958572,194.472427 82.048912,195.316071 85.093681,196.684052 
	C84.288498,191.713989 83.649452,187.769455 83.075806,183.411530 
z"/>
<path fill="#3EB230" opacity="1.000000" stroke="none" 
	d="
M182.422607,109.849960 
	C174.629440,109.434807 167.126343,108.828079 159.254974,108.088860 
	C163.205063,100.828590 168.078323,93.972481 171.727921,86.517319 
	C179.685120,70.262932 179.335953,53.839878 170.316818,38.035492 
	C167.783646,33.596565 163.133789,32.083282 157.825867,33.446548 
	C157.773605,32.972305 157.721359,32.498066 157.669113,32.023823 
	C160.496948,31.351250 163.339996,30.041014 166.150208,30.107992 
	C186.772095,30.599491 202.746582,39.508602 212.799042,57.675545 
	C221.084320,72.648811 224.413864,88.983871 223.897552,106.543335 
	C213.494659,106.980827 203.156067,106.957787 192.342560,106.918709 
	C193.128433,100.162216 194.512405,93.441299 195.585861,86.671150 
	C195.982986,84.166466 195.650009,81.546013 194.991531,78.889206 
	C190.898575,89.145599 186.805618,99.401993 182.422607,109.849960 
z"/>
<path fill="#41B932" opacity="1.000000" stroke="none" 
	d="
M163.610687,157.019257 
	C166.375946,157.559372 168.820282,158.876938 171.277161,158.900757 
	C190.237976,159.084702 209.201233,159.018143 228.639725,159.034943 
	C198.682053,189.979599 191.783508,229.421600 188.859039,270.521210 
	C183.856384,255.753952 181.934967,240.779922 181.857803,225.356430 
	C181.780655,209.932251 185.063812,195.164505 189.404068,179.195160 
	C175.430740,189.655655 161.455643,198.447144 166.895599,218.759796 
	C166.293152,218.757278 165.690689,218.754745 165.088242,218.752213 
	C163.044113,214.787216 160.459122,211.004364 159.051575,206.824966 
	C153.606293,190.656647 154.980652,174.809021 162.246445,159.426849 
	C162.597229,158.684219 162.945923,157.940598 163.610687,157.019257 
z"/>
<path fill="#41B832" opacity="1.000000" stroke="none" 
	d="
M104.927048,166.472641 
	C119.950470,169.613037 135.131744,168.072510 150.736511,167.029480 
	C148.748444,181.893021 149.783081,196.571930 155.112473,210.673706 
	C158.566498,219.813171 163.003525,228.583069 167.058792,237.491837 
	C167.964172,239.480865 169.115341,241.357986 169.787918,243.477356 
	C153.712814,229.954391 142.265533,213.453461 136.713013,192.881882 
	C130.188950,206.132996 132.032608,219.352325 142.341019,229.465988 
	C132.494064,226.611969 124.825806,222.343338 118.974686,215.074997 
	C110.854248,204.987625 107.613945,193.236679 106.912712,180.514740 
	C106.661446,175.956131 105.639816,171.439987 104.927048,166.472641 
z"/>
<path fill="#44BD34" opacity="1.000000" stroke="none" 
	d="
M58.178276,234.327026 
	C63.926510,233.472153 69.725761,232.947662 75.787247,232.145233 
	C86.274200,246.660812 101.207077,251.783875 118.273254,251.763046 
	C125.929871,251.753693 133.584930,250.460022 141.240692,249.749161 
	C141.396210,250.234207 141.551743,250.719238 141.707275,251.204285 
	C135.457245,253.318100 129.344040,256.096100 122.930717,257.417297 
	C105.815239,260.943146 88.971008,260.065948 74.110168,249.834930 
	C68.155762,245.735580 63.484573,239.772308 58.178276,234.327026 
z"/>
<path fill="#44BD35" opacity="1.000000" stroke="none" 
	d="
M216.554153,251.099060 
	C218.363403,251.271729 219.866791,251.627792 221.757446,252.022903 
	C219.056854,256.347046 215.968994,260.632141 212.881134,264.917206 
	C212.289795,264.636047 211.698471,264.354889 211.107147,264.073730 
	C212.820862,259.809967 214.534576,255.546219 216.554153,251.099060 
z"/>
<path fill="#42BA33" opacity="1.000000" stroke="none" 
	d="
M81.059158,168.390350 
	C81.185173,168.843719 81.237625,169.656525 81.194923,170.700409 
	C81.061707,170.204239 81.023651,169.477005 81.059158,168.390350 
z"/>
<path fill="#47BD38" opacity="1.000000" stroke="none" 
	d="
M202.115265,239.266571 
	C202.508621,238.942688 202.901886,238.942459 203.590057,238.942078 
	C203.884933,239.544876 203.884933,240.147842 203.884933,241.214569 
	C203.042206,240.441086 202.578705,240.015656 202.115265,239.266571 
z"/>
<path fill="#42BA33" opacity="1.000000" stroke="none" 
	d="
M80.030289,160.379745 
	C80.133141,160.569504 80.176392,161.067963 80.163162,161.749481 
	C80.061356,161.517838 80.016022,161.103149 80.030289,160.379745 
z"/>
<path fill="#42BA33" opacity="1.000000" stroke="none" 
	d="
M99.951378,173.644974 
	C99.848648,173.449982 99.811691,172.940033 99.830750,172.243591 
	C99.930222,172.481415 99.973686,172.905716 99.951378,173.644974 
z"/>
<path fill="#42BA33" opacity="1.000000" stroke="none" 
	d="
M100.908798,180.657867 
	C100.816666,180.460678 100.784943,179.942230 100.801041,179.232025 
	C100.888977,179.472382 100.929092,179.904480 100.908798,180.657867 
z"/>
<path fill="#41B832" opacity="1.000000" stroke="none" 
	d="
M153.312592,159.965256 
	C153.303635,159.598999 153.566147,159.082657 153.980682,158.322235 
	C153.949829,158.657150 153.766953,159.236160 153.312592,159.965256 
z"/>
<path fill="#42BB33" opacity="1.000000" stroke="none" 
	d="
M210.599075,199.031189 
	C210.695129,199.401077 210.524612,199.923630 210.239563,200.697250 
	C210.194199,200.360168 210.263351,199.772003 210.599075,199.031189 
z"/>
<path fill="#41B832" opacity="1.000000" stroke="none" 
	d="
M100.960426,154.428711 
	C101.228539,154.622314 101.433548,155.104416 101.674919,155.845505 
	C101.439957,155.642059 101.168640,155.179642 100.960426,154.428711 
z"/>
<path fill="#44BD35" opacity="1.000000" stroke="none" 
	d="
M217.639404,248.012924 
	C217.732208,248.390884 217.549591,248.921463 217.249680,249.707550 
	C217.209595,249.363892 217.286789,248.764709 217.639404,248.012924 
z"/>
<path fill="#3FB531" opacity="1.000000" stroke="none" 
	d="
M269.655792,99.929993 
	C269.450653,100.152946 268.940552,100.434616 268.163239,100.834259 
	C268.380951,100.631065 268.865875,100.309883 269.655792,99.929993 
z"/>
<path fill="#41B832" opacity="1.000000" stroke="none" 
	d="
M152.951248,161.722565 
	C152.850281,161.722946 152.838120,161.507050 152.880951,161.183929 
	C152.900070,161.078384 153.004181,161.507980 152.951248,161.722565 
z"/>
<path fill="#41B832" opacity="1.000000" stroke="none" 
	d="
M151.445084,165.505554 
	C151.289413,165.279984 151.448318,164.923004 151.735077,164.302719 
	C151.828522,164.484329 151.794098,164.929230 151.445084,165.505554 
z"/>
<path fill="#3FB531" opacity="1.000000" stroke="none" 
	d="
M335.278259,94.859200 
	C335.263031,94.672913 335.511963,94.488274 335.956635,94.177917 
	C335.943665,94.314476 335.740356,94.584023 335.278259,94.859200 
z"/>
</svg>